<?xml version="1.0" encoding="UTF-8"?><svg id="Layer_1" xmlns="http://www.w3.org/2000/svg" viewBox="0 0 318.3841 185.6773"><defs><style>.cls-1{letter-spacing:0em;}.cls-2{fill:#40afdd;stroke-width:10px;}.cls-2,.cls-3{stroke:#2b318d;stroke-miterlimit:10;}.cls-4{letter-spacing:.04em;}.cls-5{letter-spacing:-.005em;}.cls-3{fill:#fff;stroke-width:3px;}.cls-6{fill:#ffd53e;font-family:Phosphate-Inline, Phosphate;font-size:36px;}</style></defs><rect class="cls-3" x="1.5" y="1.5" width="315.3841" height="182.6773" rx="21.3636" ry="21.3636"/><path class="cls-2" d="M64.4902,31.7762c126.8421,17.3683,126.8421,15.3683,154.9223,19.6492,7.8965,1.2038,16.7718,3.3244,16.7718,16.7718,0,10.5263-8.5031,15.7896-16.7718,16.7718-32.1517,3.8191-32.1517,1.8191-154.9223,19.6494-7.1357,1.0363-38.4105-4.925-38.4211-36.421-.01-29.8718,29.4952-37.6433,38.421-36.4211Z"/><path class="cls-2" d="M263.1653,163.9581c-126.8421-17.3683-126.8421-15.3683-154.9223-19.6492-7.8965-1.2038-16.7718-3.3244-16.7718-16.7718,0-10.5263,8.5031-15.7896,16.7718-16.7718,32.1517-3.8191,32.1517-1.8191,154.9223-19.6494,7.1357-1.0363,38.4105,4.925,38.4211,36.421,.01,29.8718-29.4952,37.6433-38.421,36.4211Z"/><text class="cls-6" transform="translate(45.8434 78.5137)"><tspan class="cls-4" x="0" y="0">T</tspan><tspan x="18.2153" y="0">WIN</tspan><tspan class="cls-5" x="83.0142" y="0">B</tspan><tspan class="cls-1" x="103.0303" y="0">ALL</tspan></text><text class="cls-6" transform="translate(153.4723 138.264)"><tspan x="0" y="0">Games</tspan></text></svg>